<svg width="1000" height="350" viewBox="0 0 1000 350" fill="none" xmlns="http://www.w3.org/2000/svg" role="img" aria-labelledby="title desc">
  <title id="title">direction card</title><desc id="desc">Visual direction and focus card.</desc>
  <defs><linearGradient id="bg" x1="0" y1="0" x2="1000" y2="350"><stop stop-color="#080A16"/><stop offset="1" stop-color="#111827"/></linearGradient><linearGradient id="g" x1="70" y1="60" x2="930" y2="300"><stop stop-color="#FF3FD4"/><stop offset=".5" stop-color="#8B5CF6"/><stop offset="1" stop-color="#22D3EE"/></linearGradient><filter id="glow" x="-20%" y="-30%" width="140%" height="160%"><feGaussianBlur stdDeviation="4" result="b"/><feMerge><feMergeNode in="b"/><feMergeNode in="SourceGraphic"/></feMerge></filter><style>.node{animation:float 4.8s ease-in-out infinite}.n2{animation-delay:-.8s}.n3{animation-delay:-1.6s}.n4{animation-delay:-2.4s}.line{stroke-dasharray:850;stroke-dashoffset:850;animation:draw 5s ease-in-out infinite}@keyframes float{0%,100%{transform:translateY(0)}50%{transform:translateY(-9px)}}@keyframes draw{0%{stroke-dashoffset:850;opacity:.3}55%,75%{stroke-dashoffset:0;opacity:1}100%{stroke-dashoffset:-850;opacity:.25}}</style></defs>
  <rect width="1000" height="350" rx="30" fill="url(#bg)"/><rect x="2" y="2" width="996" height="346" rx="28" stroke="#FFFFFF" stroke-opacity=".1"/>
  <text x="54" y="66" fill="#F8FAFC" font-family="Segoe UI,Arial" font-size="31" font-weight="900">Direction</text><text x="54" y="98" fill="#A5B4FC" font-family="Segoe UI,Arial" font-size="15" font-weight="800" letter-spacing="2">PRODUCT · INTERFACE · MUSIC · TOOLS · STYLE</text>
  <path class="line" d="M144 238C244 156 344 256 444 178C544 100 646 246 756 164C822 116 876 126 924 98" stroke="url(#g)" stroke-width="4" stroke-linecap="round" filter="url(#glow)"/>
  <g font-family="Segoe UI,Arial" font-weight="900" filter="url(#glow)">
    <g class="node"><rect x="78" y="162" width="160" height="84" rx="24" fill="#0D1020" stroke="#FF3FD4" stroke-opacity=".55"/><text x="158" y="198" fill="#FCE7F3" text-anchor="middle" font-size="19">Product</text><text x="158" y="224" fill="#CBD5E1" text-anchor="middle" font-size="13">useful apps</text></g>
    <g class="node n2"><rect x="292" y="196" width="160" height="84" rx="24" fill="#0D1020" stroke="#22D3EE" stroke-opacity=".55"/><text x="372" y="232" fill="#CFFAFE" text-anchor="middle" font-size="19">Interface</text><text x="372" y="258" fill="#CBD5E1" text-anchor="middle" font-size="13">motion UI</text></g>
    <g class="node n3"><rect x="506" y="142" width="160" height="84" rx="24" fill="#0D1020" stroke="#8B5CF6" stroke-opacity=".55"/><text x="586" y="178" fill="#EDE9FE" text-anchor="middle" font-size="19">Music</text><text x="586" y="204" fill="#CBD5E1" text-anchor="middle" font-size="13">player flow</text></g>
    <g class="node n4"><rect x="720" y="176" width="160" height="84" rx="24" fill="#0D1020" stroke="#FFB86B" stroke-opacity=".55"/><text x="800" y="212" fill="#FFE7C2" text-anchor="middle" font-size="19">Tools</text><text x="800" y="238" fill="#CBD5E1" text-anchor="middle" font-size="13">save time</text></g>
  </g>
</svg>
